<mxfile host="app.diagrams.net" agent="Mozilla/5.0 (Macintosh; Intel Mac OS X 10_15_7) AppleWebKit/537.36 (KHTML, like Gecko) Chrome/129.0.0.0 Safari/537.36" version="24.8.0">
  <diagram id="C5RBs43oDa-KdzZeNtuy" name="Page-1">
    <mxGraphModel dx="4007" dy="2017" grid="1" gridSize="10" guides="1" tooltips="1" connect="1" arrows="1" fold="1" page="1" pageScale="1" pageWidth="827" pageHeight="1169" math="0" shadow="0">
      <root>
        <mxCell id="WIyWlLk6GJQsqaUBKTNV-0" />
        <mxCell id="WIyWlLk6GJQsqaUBKTNV-1" parent="WIyWlLk6GJQsqaUBKTNV-0" />
        <mxCell id="4h09E6Hq3CW64zeVAbYw-12" value="" style="edgeStyle=orthogonalEdgeStyle;rounded=0;orthogonalLoop=1;jettySize=auto;html=1;" edge="1" parent="WIyWlLk6GJQsqaUBKTNV-1" source="4h09E6Hq3CW64zeVAbYw-2" target="4h09E6Hq3CW64zeVAbYw-3">
          <mxGeometry relative="1" as="geometry" />
        </mxCell>
        <mxCell id="4h09E6Hq3CW64zeVAbYw-2" value="LOGIN" style="rounded=1;whiteSpace=wrap;html=1;arcSize=50;" vertex="1" parent="WIyWlLk6GJQsqaUBKTNV-1">
          <mxGeometry x="360" y="100" width="120" height="60" as="geometry" />
        </mxCell>
        <mxCell id="4h09E6Hq3CW64zeVAbYw-15" style="edgeStyle=orthogonalEdgeStyle;rounded=0;orthogonalLoop=1;jettySize=auto;html=1;exitX=1;exitY=0.5;exitDx=0;exitDy=0;" edge="1" parent="WIyWlLk6GJQsqaUBKTNV-1" source="4h09E6Hq3CW64zeVAbYw-3" target="4h09E6Hq3CW64zeVAbYw-6">
          <mxGeometry relative="1" as="geometry" />
        </mxCell>
        <mxCell id="4h09E6Hq3CW64zeVAbYw-16" style="edgeStyle=orthogonalEdgeStyle;rounded=0;orthogonalLoop=1;jettySize=auto;html=1;exitX=0;exitY=0.5;exitDx=0;exitDy=0;entryX=0.5;entryY=0;entryDx=0;entryDy=0;" edge="1" parent="WIyWlLk6GJQsqaUBKTNV-1" source="4h09E6Hq3CW64zeVAbYw-3" target="4h09E6Hq3CW64zeVAbYw-4">
          <mxGeometry relative="1" as="geometry" />
        </mxCell>
        <mxCell id="4h09E6Hq3CW64zeVAbYw-18" style="edgeStyle=orthogonalEdgeStyle;rounded=0;orthogonalLoop=1;jettySize=auto;html=1;exitX=0.5;exitY=1;exitDx=0;exitDy=0;entryX=0.5;entryY=0;entryDx=0;entryDy=0;" edge="1" parent="WIyWlLk6GJQsqaUBKTNV-1" source="4h09E6Hq3CW64zeVAbYw-3" target="4h09E6Hq3CW64zeVAbYw-5">
          <mxGeometry relative="1" as="geometry" />
        </mxCell>
        <mxCell id="4h09E6Hq3CW64zeVAbYw-3" value="DASHBOARD" style="rounded=0;whiteSpace=wrap;html=1;" vertex="1" parent="WIyWlLk6GJQsqaUBKTNV-1">
          <mxGeometry x="360" y="210" width="120" height="60" as="geometry" />
        </mxCell>
        <mxCell id="4h09E6Hq3CW64zeVAbYw-17" style="edgeStyle=orthogonalEdgeStyle;rounded=0;orthogonalLoop=1;jettySize=auto;html=1;exitX=0.5;exitY=1;exitDx=0;exitDy=0;entryX=0;entryY=0.5;entryDx=0;entryDy=0;" edge="1" parent="WIyWlLk6GJQsqaUBKTNV-1" source="4h09E6Hq3CW64zeVAbYw-4" target="4h09E6Hq3CW64zeVAbYw-11">
          <mxGeometry relative="1" as="geometry" />
        </mxCell>
        <mxCell id="4h09E6Hq3CW64zeVAbYw-4" value="IMPORT DATA" style="rounded=0;whiteSpace=wrap;html=1;" vertex="1" parent="WIyWlLk6GJQsqaUBKTNV-1">
          <mxGeometry x="160" y="310" width="120" height="60" as="geometry" />
        </mxCell>
        <mxCell id="4h09E6Hq3CW64zeVAbYw-19" style="edgeStyle=orthogonalEdgeStyle;rounded=0;orthogonalLoop=1;jettySize=auto;html=1;exitX=0.5;exitY=1;exitDx=0;exitDy=0;entryX=0.5;entryY=0;entryDx=0;entryDy=0;" edge="1" parent="WIyWlLk6GJQsqaUBKTNV-1" source="4h09E6Hq3CW64zeVAbYw-5" target="4h09E6Hq3CW64zeVAbYw-9">
          <mxGeometry relative="1" as="geometry" />
        </mxCell>
        <mxCell id="4h09E6Hq3CW64zeVAbYw-5" value="VALIDASI DAN VERIFIKASI DATA" style="rounded=0;whiteSpace=wrap;html=1;" vertex="1" parent="WIyWlLk6GJQsqaUBKTNV-1">
          <mxGeometry x="360" y="310" width="120" height="60" as="geometry" />
        </mxCell>
        <mxCell id="4h09E6Hq3CW64zeVAbYw-20" style="edgeStyle=orthogonalEdgeStyle;rounded=0;orthogonalLoop=1;jettySize=auto;html=1;entryX=1;entryY=0.5;entryDx=0;entryDy=0;" edge="1" parent="WIyWlLk6GJQsqaUBKTNV-1" source="4h09E6Hq3CW64zeVAbYw-6" target="4h09E6Hq3CW64zeVAbYw-9">
          <mxGeometry relative="1" as="geometry">
            <Array as="points">
              <mxPoint x="630" y="460" />
            </Array>
          </mxGeometry>
        </mxCell>
        <mxCell id="4h09E6Hq3CW64zeVAbYw-6" value="TAGGING PENERIMA BANTUAN" style="rounded=0;whiteSpace=wrap;html=1;" vertex="1" parent="WIyWlLk6GJQsqaUBKTNV-1">
          <mxGeometry x="570" y="310" width="120" height="60" as="geometry" />
        </mxCell>
        <mxCell id="4h09E6Hq3CW64zeVAbYw-21" style="edgeStyle=orthogonalEdgeStyle;rounded=0;orthogonalLoop=1;jettySize=auto;html=1;exitX=0.5;exitY=1;exitDx=0;exitDy=0;entryX=0.5;entryY=0;entryDx=0;entryDy=0;" edge="1" parent="WIyWlLk6GJQsqaUBKTNV-1" source="4h09E6Hq3CW64zeVAbYw-9" target="4h09E6Hq3CW64zeVAbYw-11">
          <mxGeometry relative="1" as="geometry" />
        </mxCell>
        <mxCell id="4h09E6Hq3CW64zeVAbYw-9" value="LAPORAN DAN MONITORING" style="shape=parallelogram;perimeter=parallelogramPerimeter;whiteSpace=wrap;html=1;fixedSize=1;" vertex="1" parent="WIyWlLk6GJQsqaUBKTNV-1">
          <mxGeometry x="360" y="430" width="120" height="60" as="geometry" />
        </mxCell>
        <mxCell id="4h09E6Hq3CW64zeVAbYw-11" value="LOGOUT" style="rounded=1;whiteSpace=wrap;html=1;arcSize=50;" vertex="1" parent="WIyWlLk6GJQsqaUBKTNV-1">
          <mxGeometry x="360" y="530" width="120" height="60" as="geometry" />
        </mxCell>
        <mxCell id="4h09E6Hq3CW64zeVAbYw-22" value="" style="edgeStyle=orthogonalEdgeStyle;rounded=0;orthogonalLoop=1;jettySize=auto;html=1;" edge="1" parent="WIyWlLk6GJQsqaUBKTNV-1" source="4h09E6Hq3CW64zeVAbYw-23" target="4h09E6Hq3CW64zeVAbYw-27">
          <mxGeometry relative="1" as="geometry" />
        </mxCell>
        <mxCell id="4h09E6Hq3CW64zeVAbYw-44" style="edgeStyle=orthogonalEdgeStyle;rounded=0;orthogonalLoop=1;jettySize=auto;html=1;exitX=1;exitY=0.25;exitDx=0;exitDy=0;entryX=0.5;entryY=0;entryDx=0;entryDy=0;" edge="1" parent="WIyWlLk6GJQsqaUBKTNV-1" source="4h09E6Hq3CW64zeVAbYw-27" target="4h09E6Hq3CW64zeVAbYw-41">
          <mxGeometry relative="1" as="geometry" />
        </mxCell>
        <mxCell id="4h09E6Hq3CW64zeVAbYw-23" value="LOGIN" style="rounded=1;whiteSpace=wrap;html=1;arcSize=50;" vertex="1" parent="WIyWlLk6GJQsqaUBKTNV-1">
          <mxGeometry x="-520" y="110" width="120" height="60" as="geometry" />
        </mxCell>
        <mxCell id="4h09E6Hq3CW64zeVAbYw-24" style="edgeStyle=orthogonalEdgeStyle;rounded=0;orthogonalLoop=1;jettySize=auto;html=1;exitX=1;exitY=0.5;exitDx=0;exitDy=0;" edge="1" parent="WIyWlLk6GJQsqaUBKTNV-1" source="4h09E6Hq3CW64zeVAbYw-27" target="4h09E6Hq3CW64zeVAbYw-33">
          <mxGeometry relative="1" as="geometry" />
        </mxCell>
        <mxCell id="4h09E6Hq3CW64zeVAbYw-25" style="edgeStyle=orthogonalEdgeStyle;rounded=0;orthogonalLoop=1;jettySize=auto;html=1;exitX=0;exitY=0.5;exitDx=0;exitDy=0;entryX=0.5;entryY=0;entryDx=0;entryDy=0;" edge="1" parent="WIyWlLk6GJQsqaUBKTNV-1" source="4h09E6Hq3CW64zeVAbYw-27" target="4h09E6Hq3CW64zeVAbYw-29">
          <mxGeometry relative="1" as="geometry" />
        </mxCell>
        <mxCell id="4h09E6Hq3CW64zeVAbYw-26" style="edgeStyle=orthogonalEdgeStyle;rounded=0;orthogonalLoop=1;jettySize=auto;html=1;exitX=0.5;exitY=1;exitDx=0;exitDy=0;entryX=0.5;entryY=0;entryDx=0;entryDy=0;" edge="1" parent="WIyWlLk6GJQsqaUBKTNV-1" source="4h09E6Hq3CW64zeVAbYw-27" target="4h09E6Hq3CW64zeVAbYw-31">
          <mxGeometry relative="1" as="geometry" />
        </mxCell>
        <mxCell id="4h09E6Hq3CW64zeVAbYw-27" value="DASHBOARD" style="rounded=0;whiteSpace=wrap;html=1;" vertex="1" parent="WIyWlLk6GJQsqaUBKTNV-1">
          <mxGeometry x="-520" y="220" width="120" height="60" as="geometry" />
        </mxCell>
        <mxCell id="4h09E6Hq3CW64zeVAbYw-28" style="edgeStyle=orthogonalEdgeStyle;rounded=0;orthogonalLoop=1;jettySize=auto;html=1;exitX=0.5;exitY=1;exitDx=0;exitDy=0;entryX=0;entryY=0.5;entryDx=0;entryDy=0;" edge="1" parent="WIyWlLk6GJQsqaUBKTNV-1" source="4h09E6Hq3CW64zeVAbYw-29" target="4h09E6Hq3CW64zeVAbYw-36">
          <mxGeometry relative="1" as="geometry" />
        </mxCell>
        <mxCell id="4h09E6Hq3CW64zeVAbYw-29" value="INPUT DATA RPD/RPJMD/ RENSTRA/RENJA/APBD" style="rounded=0;whiteSpace=wrap;html=1;" vertex="1" parent="WIyWlLk6GJQsqaUBKTNV-1">
          <mxGeometry x="-750" y="320" width="150" height="85" as="geometry" />
        </mxCell>
        <mxCell id="4h09E6Hq3CW64zeVAbYw-30" style="edgeStyle=orthogonalEdgeStyle;rounded=0;orthogonalLoop=1;jettySize=auto;html=1;exitX=0.5;exitY=1;exitDx=0;exitDy=0;entryX=0.5;entryY=0;entryDx=0;entryDy=0;" edge="1" parent="WIyWlLk6GJQsqaUBKTNV-1" source="4h09E6Hq3CW64zeVAbYw-31" target="4h09E6Hq3CW64zeVAbYw-35">
          <mxGeometry relative="1" as="geometry" />
        </mxCell>
        <mxCell id="4h09E6Hq3CW64zeVAbYw-31" value="MENU INPUT CAPAIAN KINERJA DAN ANGGARAN" style="rounded=0;whiteSpace=wrap;html=1;" vertex="1" parent="WIyWlLk6GJQsqaUBKTNV-1">
          <mxGeometry x="-520" y="320" width="120" height="60" as="geometry" />
        </mxCell>
        <mxCell id="4h09E6Hq3CW64zeVAbYw-33" value="MONITOR PROGRES PENGINPUT" style="rounded=0;whiteSpace=wrap;html=1;" vertex="1" parent="WIyWlLk6GJQsqaUBKTNV-1">
          <mxGeometry x="-310" y="320" width="120" height="60" as="geometry" />
        </mxCell>
        <mxCell id="4h09E6Hq3CW64zeVAbYw-39" style="edgeStyle=orthogonalEdgeStyle;rounded=0;orthogonalLoop=1;jettySize=auto;html=1;exitX=0.5;exitY=1;exitDx=0;exitDy=0;entryX=0.5;entryY=0;entryDx=0;entryDy=0;" edge="1" parent="WIyWlLk6GJQsqaUBKTNV-1" source="4h09E6Hq3CW64zeVAbYw-35" target="4h09E6Hq3CW64zeVAbYw-37">
          <mxGeometry relative="1" as="geometry" />
        </mxCell>
        <mxCell id="4h09E6Hq3CW64zeVAbYw-35" value="INPUT REALISASI ANGGARAN DAN KINERJA SETIAP TRIWULAN" style="shape=parallelogram;perimeter=parallelogramPerimeter;whiteSpace=wrap;html=1;fixedSize=1;" vertex="1" parent="WIyWlLk6GJQsqaUBKTNV-1">
          <mxGeometry x="-545" y="485" width="170" height="85" as="geometry" />
        </mxCell>
        <mxCell id="4h09E6Hq3CW64zeVAbYw-36" value="LOGOUT" style="rounded=1;whiteSpace=wrap;html=1;arcSize=50;" vertex="1" parent="WIyWlLk6GJQsqaUBKTNV-1">
          <mxGeometry x="-520" y="875" width="120" height="60" as="geometry" />
        </mxCell>
        <mxCell id="4h09E6Hq3CW64zeVAbYw-40" style="edgeStyle=orthogonalEdgeStyle;rounded=0;orthogonalLoop=1;jettySize=auto;html=1;exitX=0.5;exitY=1;exitDx=0;exitDy=0;entryX=0.5;entryY=0;entryDx=0;entryDy=0;" edge="1" parent="WIyWlLk6GJQsqaUBKTNV-1" source="4h09E6Hq3CW64zeVAbYw-37" target="4h09E6Hq3CW64zeVAbYw-36">
          <mxGeometry relative="1" as="geometry" />
        </mxCell>
        <mxCell id="4h09E6Hq3CW64zeVAbYw-37" value="LAPORAN CAPAIAN KINERJA, LAPORAN KINERJA SPIP, KESESUAIAN PROGRAM RPD DAN RKPD, LAMPIRAN RENSTRA DLL" style="shape=parallelogram;perimeter=parallelogramPerimeter;whiteSpace=wrap;html=1;fixedSize=1;" vertex="1" parent="WIyWlLk6GJQsqaUBKTNV-1">
          <mxGeometry x="-559" y="655" width="200" height="120" as="geometry" />
        </mxCell>
        <mxCell id="4h09E6Hq3CW64zeVAbYw-38" style="edgeStyle=orthogonalEdgeStyle;rounded=0;orthogonalLoop=1;jettySize=auto;html=1;exitX=0.5;exitY=1;exitDx=0;exitDy=0;entryX=1;entryY=0.5;entryDx=0;entryDy=0;" edge="1" parent="WIyWlLk6GJQsqaUBKTNV-1" source="4h09E6Hq3CW64zeVAbYw-33" target="4h09E6Hq3CW64zeVAbYw-36">
          <mxGeometry relative="1" as="geometry">
            <mxPoint x="-390" y="260" as="sourcePoint" />
            <mxPoint x="-240" y="330" as="targetPoint" />
          </mxGeometry>
        </mxCell>
        <mxCell id="4h09E6Hq3CW64zeVAbYw-45" style="edgeStyle=orthogonalEdgeStyle;rounded=0;orthogonalLoop=1;jettySize=auto;html=1;exitX=0.5;exitY=1;exitDx=0;exitDy=0;entryX=1;entryY=0.5;entryDx=0;entryDy=0;" edge="1" parent="WIyWlLk6GJQsqaUBKTNV-1" source="4h09E6Hq3CW64zeVAbYw-41" target="4h09E6Hq3CW64zeVAbYw-36">
          <mxGeometry relative="1" as="geometry" />
        </mxCell>
        <mxCell id="4h09E6Hq3CW64zeVAbYw-41" value="MASTER DATA, PENGATURAN JADWAL" style="rounded=0;whiteSpace=wrap;html=1;" vertex="1" parent="WIyWlLk6GJQsqaUBKTNV-1">
          <mxGeometry x="-140" y="320" width="150" height="60" as="geometry" />
        </mxCell>
        <mxCell id="4h09E6Hq3CW64zeVAbYw-46" style="edgeStyle=orthogonalEdgeStyle;rounded=0;orthogonalLoop=1;jettySize=auto;html=1;exitX=0.5;exitY=1;exitDx=0;exitDy=0;entryX=1;entryY=0.5;entryDx=0;entryDy=0;" edge="1" parent="WIyWlLk6GJQsqaUBKTNV-1" source="4h09E6Hq3CW64zeVAbYw-42" target="4h09E6Hq3CW64zeVAbYw-11">
          <mxGeometry relative="1" as="geometry" />
        </mxCell>
        <mxCell id="4h09E6Hq3CW64zeVAbYw-42" value="MASTER DATA" style="rounded=0;whiteSpace=wrap;html=1;" vertex="1" parent="WIyWlLk6GJQsqaUBKTNV-1">
          <mxGeometry x="730" y="310" width="120" height="60" as="geometry" />
        </mxCell>
        <mxCell id="4h09E6Hq3CW64zeVAbYw-43" style="edgeStyle=orthogonalEdgeStyle;rounded=0;orthogonalLoop=1;jettySize=auto;html=1;exitX=1;exitY=0.25;exitDx=0;exitDy=0;entryX=0.5;entryY=0;entryDx=0;entryDy=0;" edge="1" parent="WIyWlLk6GJQsqaUBKTNV-1" source="4h09E6Hq3CW64zeVAbYw-3" target="4h09E6Hq3CW64zeVAbYw-42">
          <mxGeometry relative="1" as="geometry">
            <mxPoint x="490" y="250" as="sourcePoint" />
            <mxPoint x="640" y="320" as="targetPoint" />
          </mxGeometry>
        </mxCell>
      </root>
    </mxGraphModel>
  </diagram>
</mxfile>
